<?xml version="1.0" encoding="UTF-8" standalone="no"?>
<!-- Created with Inkscape (http://www.inkscape.org/) -->

<svg
   width="400mm"
   height="400mm"
   viewBox="0 0 400 400"
   version="1.1"
   id="svg5"
   xml:space="preserve"
   inkscape:version="1.2 (dc2aeda, 2022-05-15)"
   sodipodi:docname="orangey-fun.svg"
   xmlns:inkscape="http://www.inkscape.org/namespaces/inkscape"
   xmlns:sodipodi="http://sodipodi.sourceforge.net/DTD/sodipodi-0.dtd"
   xmlns="http://www.w3.org/2000/svg"
   xmlns:svg="http://www.w3.org/2000/svg"><sodipodi:namedview
     id="namedview7"
     pagecolor="#505050"
     bordercolor="#ffffff"
     borderopacity="1"
     inkscape:showpageshadow="0"
     inkscape:pageopacity="0"
     inkscape:pagecheckerboard="1"
     inkscape:deskcolor="#505050"
     inkscape:document-units="mm"
     showgrid="false"
     inkscape:zoom="0.47426562"
     inkscape:cx="798.07597"
     inkscape:cy="966.75782"
     inkscape:window-width="1390"
     inkscape:window-height="1205"
     inkscape:window-x="0"
     inkscape:window-y="25"
     inkscape:window-maximized="0"
     inkscape:current-layer="g8486" /><defs
     id="defs2" /><g
     inkscape:label="Layer 1"
     inkscape:groupmode="layer"
     id="layer1"><g
       id="g8486"
       transform="matrix(1.2569581,0,0,1.2569581,-68.264428,-51.64706)"><path
         id="rect4712"
         style="fill:#c3f3ff;fill-opacity:1;stroke:none;stroke-width:5.76501;stroke-linecap:round;stroke-linejoin:round;stroke-dasharray:none"
         d="m 243.79365,111.01804 v 12.08505 c -12.00793,3.91537 -20.64163,15.16644 -20.64163,28.51454 V 296.9178 c 0,16.61999 13.38025,29.99972 30.00023,29.99972 h 59.94415 c 16.61998,0 29.99972,-13.37973 29.99972,-29.99972 V 151.61763 c 0,-13.55455 -8.90075,-24.95089 -21.19923,-28.69489 v -11.9047 z" /><path
         id="path4810"
         style="fill:#ff7812;fill-opacity:1;stroke:none;stroke-width:4.53156;stroke-linecap:round;stroke-linejoin:round;stroke-dasharray:none"
         d="m 235.98326,161.26497 v 132.7335 c 0,13.06408 10.5175,23.58116 23.58157,23.58116 h 47.11888 c 13.06407,0 23.58117,-10.51708 23.58117,-23.58116 v -132.7335 z"
         sodipodi:nodetypes="csssscc" /><path
         style="fill:none;fill-opacity:1;stroke:#000000;stroke-width:4.96191;stroke-linecap:round;stroke-linejoin:round;stroke-dasharray:none"
         d="m 277.87147,239.70503 c -4.86709,15.0862 20.07595,10.15662 13.6426,-0.74902"
         id="path3155-1"
         sodipodi:nodetypes="cc" /><path
         id="rect5071"
         style="fill:#ff686d;stroke-width:3.35922;stroke-linecap:round;stroke-linejoin:round"
         d="m 253.32769,77.243347 c -3.23946,0.06157 -7.94149,1.962932 -10.33064,4.121196 l 29.95787,79.900547 h 12.49846 L 253.95504,77.25575 c -0.20185,-0.01272 -0.41139,-0.01651 -0.62735,-0.0124 z" /><path
         id="path5945"
         style="fill:#d9faff;fill-opacity:0.233429;stroke:none;stroke-width:5.76501;stroke-linecap:round;stroke-linejoin:round;stroke-dasharray:none"
         d="m 304.66202,111.01803 c 2.31225,12.03944 1.91988,21.34853 10.65207,32.34686 10.85548,13.67267 7.72945,144.47576 -13.50086,159.56391 -3.13314,9.27045 -4.88735,13.40016 -14.61939,23.98871 h 25.90281 c 16.61996,0 29.99972,-13.37974 29.99972,-29.99972 V 151.61762 c 0,-13.55454 -8.90075,-24.95089 -21.19922,-28.69489 v -11.9047 z"
         sodipodi:nodetypes="csccsssccc" /><path
         id="path6289"
         style="fill:#5f6161;fill-opacity:0.204611;stroke:none;stroke-width:5.76501;stroke-linecap:round;stroke-linejoin:round;stroke-dasharray:none"
         d="m 243.7939,111.01803 v 12.08505 c -12.00791,3.91537 -20.64163,15.16645 -20.64163,28.51454 v 145.30017 c 0,16.61998 13.38027,29.99972 30.00024,29.99972 h 39.73452 c -0.29311,-1.17242 -1.29198,-1.64357 -1.6738,-2.78897 -0.17158,-0.51477 -0.23813,-1.91245 -0.55759,-2.23191 -0.13149,-0.1315 -0.4266,0.1315 -0.5581,0 -0.1315,-0.1315 0.0832,-0.39127 0,-0.55759 -0.48421,-0.9684 -0.99628,-1.21563 -1.6738,-2.2319 -0.45927,-0.68887 -0.3065,-2.03571 -0.55759,-2.78898 -0.29499,-0.88496 -1.70739,-1.14979 -2.23139,-1.6738 -0.076,-0.076 -0.64844,-2.64617 -1.11569,-3.34708 -0.82251,-1.23375 -1.88899,-2.14692 -2.7895,-3.3476 -0.36229,-0.48307 -0.57928,-1.69497 -1.11569,-2.23139 -26.73105,-13.77826 -27.41334,-11.24889 -22.31543,-41.84086 0,-13.58891 -0.23894,-27.17541 0.5581,-40.72516 0.27115,-4.60944 0,-9.32902 0,-13.94747 0,-1.0585 -0.26516,-2.84455 0,-3.90519 0.10085,-0.40341 0.49879,-0.70405 0.55759,-1.11569 0.18409,-1.28864 -0.214,-2.62118 0,-3.90519 0.82709,-4.96255 0.95918,-10.06028 1.6738,-15.06265 0.31276,-2.18929 -0.20063,-4.48769 0,-6.69468 0.81623,-8.97842 3.3988,-17.50142 5.57847,-26.2201 0.0902,-0.36081 -0.16632,-0.78304 0,-1.1157 0.0832,-0.16632 0.50701,0.17881 0.55811,0 1.71222,-5.99273 -0.2875,-1.75644 0.5581,-7.25278 0.20585,-1.33806 0.93679,-2.56274 1.1157,-3.90467 0.41855,-3.139 -0.63833,-6.38947 0.55758,-9.48418 0.99441,-6.46361 2.28025,-12.98499 3.10162,-19.52594 z"
         sodipodi:nodetypes="ccssscssscsssssccssssssssscssccc" /><ellipse
         style="fill:#cb2600;fill-opacity:0.654179;stroke-width:0.2215"
         id="ellipse6363"
         cx="-374.27402"
         cy="-235.92133"
         rx="13.353764"
         ry="7.4206429"
         transform="matrix(-0.99311496,-0.11714385,0.4972159,-0.86762685,0,0)" /><g
         id="g7063"
         transform="matrix(0.74865696,0.42447786,-0.42447786,0.74865696,274.92118,-9.8692532)"><ellipse
           style="fill:#000000;fill-opacity:1;stroke-width:0.21046"
           id="ellipse7057"
           cx="16.163086"
           cy="-283.52731"
           rx="10.247115"
           ry="8.7304287"
           transform="rotate(138.17379)" /><ellipse
           style="fill:#ffffff;fill-opacity:1;stroke-width:0.0858646"
           id="ellipse7059"
           cx="178.18027"
           cy="218.45433"
           rx="4.233561"
           ry="3.5173614" /><ellipse
           style="fill:#ffffff;fill-opacity:1;stroke-width:0.0429323"
           id="ellipse7061"
           cx="176.06369"
           cy="227.29863"
           rx="2.1167805"
           ry="1.7586807" /></g><g
         id="g7108"
         transform="matrix(0.74865696,0.42447786,-0.42447786,0.74865696,215.6545,-9.8692532)"><ellipse
           style="fill:#000000;fill-opacity:1;stroke-width:0.21046"
           id="ellipse7102"
           cx="16.163086"
           cy="-283.52731"
           rx="10.247115"
           ry="8.7304287"
           transform="rotate(138.17379)" /><ellipse
           style="fill:#ffffff;fill-opacity:1;stroke-width:0.0858646"
           id="ellipse7104"
           cx="178.18027"
           cy="218.45433"
           rx="4.233561"
           ry="3.5173614" /><ellipse
           style="fill:#ffffff;fill-opacity:1;stroke-width:0.0429323"
           id="ellipse7106"
           cx="176.06369"
           cy="227.29863"
           rx="2.1167805"
           ry="1.7586807" /></g><ellipse
         style="fill:#cb2600;fill-opacity:0.654179;stroke-width:0.2215"
         id="ellipse7110"
         cx="-428.67569"
         cy="-228.57623"
         rx="13.353764"
         ry="7.4206429"
         transform="matrix(-0.99311496,-0.11714385,0.4972159,-0.86762685,0,0)" /></g><g
       id="g3628"
       transform="matrix(1.2569581,0,0,1.2569581,-65.4595,-39.024886)"><g
         id="g1577"
         transform="translate(28.759058,-45.903881)" /><g
         id="g2498"
         transform="matrix(0.48611597,-0.17547149,0.17547149,0.48611597,10.411871,89.632211)"><g
           id="g2426"><path
             style="fill:#007100;fill-opacity:1;stroke-width:0.264583"
             d="m 113.08005,248.61772 c 26.84185,-5.91271 85.41089,-23.03327 116.19476,-63.97647 16.98751,-20.53481 12.76778,-73.28595 11.7529,-73.18897 -32.25277,13.49066 -52.67378,12.21128 -93.69509,49.80574 -22.24013,24.83473 -35.29016,65.92204 -34.25257,87.3597 z"
             id="path1180"
             sodipodi:nodetypes="ccccc"
             transform="translate(28.759057,-45.90388)" /><path
             style="fill:#007100;fill-opacity:1;stroke-width:0.264583"
             d="m 122.22599,231.17858 -18.804,22.12235 5.5306,3.31835 22.12235,-26.54682 z"
             id="path1569"
             sodipodi:nodetypes="ccccc"
             transform="translate(28.759057,-45.90388)" /><path
             style="fill:#008000;stroke-width:0.264583"
             d="m 146.56058,186.93388 c 0,0 80.74658,-66.36706 97.89141,-89.042474 17.14482,-22.67541 12.72035,-23.228469 12.72035,-23.228469 0,0 -41.84722,9.045924 -73.00376,38.161063 -33.14284,30.97129 -37.73553,74.10988 -37.608,74.10988 z"
             id="path1579"
             sodipodi:nodetypes="cscsc" /></g><path
           style="fill:#007100;fill-opacity:1;stroke-width:0.157001"
           d="m 123.39197,206.82468 c -5.37173,-1.52343 -7.6736,-9.3097 -3.95762,-14.78651 3.33171,-2.7252 7.53036,-3.19784 11.14419,-5.21825 3.58503,-1.52435 9.79362,-1.05752 10.05117,4.83586 -0.48925,5.84365 -2.11787,11.80104 -0.42403,17.64471 2.45618,9.02171 7.80572,16.34382 11.02475,24.95784 3.72828,2.88183 2.27958,10.85109 -2.3542,10.93732 -4.00646,1.37717 -7.89187,5.83355 -12.23559,3.26695 -4.89094,-2.32525 -3.87082,-9.5174 -4.65373,-14.56191 -2.26131,-9.08239 -5.73495,-20.10367 -8.59494,-27.07601 z"
           id="path2491"
           sodipodi:nodetypes="cccccccccc" /></g><circle
         style="fill:#eb4d00;fill-opacity:1;stroke-width:0.189393"
         id="path2552"
         cx="154.6239"
         cy="234.65007"
         r="73.833344" /><path
         id="path2679"
         style="fill:#cf4400;fill-opacity:1;stroke-width:0.264583"
         d="m 111.29074,175.15783 a 73.833344,73.833344 0 0 0 -31.339144,48.96868 73.833344,73.833344 0 0 0 60.782754,84.90124 73.833344,73.833344 0 0 0 46.53742,-7.60289 c -1.88991,-1.57706 -4.04443,-2.76551 -6.43039,-3.39969 -15.32802,-13.28168 -40.38927,-8.93239 -51.58418,-26.7505 -16.73305,-15.11387 -29.662384,-27.55716 -25.75708,-47.1267 -12.067337,-12.39663 1.71277,-31.99571 7.79062,-48.99014 z" /><ellipse
         style="fill:#ff740b;fill-opacity:1;stroke-width:0.214742"
         id="path2874"
         cx="181.40327"
         cy="182.78592"
         rx="11.614235"
         ry="8.0193529" /><g
         id="g3533"
         transform="matrix(0.86480482,0,0,0.86480482,28.384943,20.554228)"
         style="fill:#ff740b;fill-opacity:1"><ellipse
           style="fill:#ff740b;fill-opacity:1;stroke-width:0.21046"
           id="ellipse3084"
           cx="-184.2534"
           cy="-230.92599"
           rx="10.247115"
           ry="8.7304287"
           transform="rotate(175.50454)" /><ellipse
           style="fill:#ff740b;fill-opacity:1;stroke-width:0.21046"
           id="ellipse3086"
           cx="-179.12985"
           cy="-220.18086"
           rx="10.247115"
           ry="8.7304287"
           transform="rotate(175.50454)" /><ellipse
           style="fill:#ff740b;fill-opacity:1;stroke-width:0.16217"
           id="ellipse3088"
           cx="-191.1718"
           cy="-226.16696"
           rx="6.0842247"
           ry="8.7304287"
           transform="rotate(175.50454)" /></g><ellipse
         style="fill:#ff740b;fill-opacity:1;stroke-width:0.107283"
         id="ellipse3090"
         cx="212.04277"
         cy="223.9175"
         rx="5.2540588"
         ry="4.4244704" /><path
         style="fill:none;fill-opacity:1;stroke:#000000;stroke-width:4.96191;stroke-linecap:round;stroke-linejoin:round;stroke-dasharray:none"
         d="m 120.93572,247.71558 17.9463,-1.87489 -10.90412,15.98738"
         id="path3155" /><g
         id="g3528"
         transform="matrix(0.86062111,0,0,0.86062111,27.703733,28.554441)"><ellipse
           style="fill:#000000;fill-opacity:1;stroke-width:0.21046"
           id="ellipse3220"
           cx="16.163086"
           cy="-283.52731"
           rx="10.247115"
           ry="8.7304287"
           transform="rotate(138.17379)" /><ellipse
           style="fill:#ffffff;fill-opacity:1;stroke-width:0.0858646"
           id="ellipse3222"
           cx="178.18027"
           cy="218.45433"
           rx="4.233561"
           ry="3.5173614" /><ellipse
           style="fill:#ffffff;fill-opacity:1;stroke-width:0.0429323"
           id="ellipse3276"
           cx="176.06369"
           cy="227.29863"
           rx="2.1167805"
           ry="1.7586807" /></g><ellipse
         style="fill:#000000;fill-opacity:1;stroke-width:0.228475"
         id="ellipse3278"
         cx="4.5741739"
         cy="-300.79517"
         rx="11.114098"
         ry="9.4864216"
         transform="matrix(-0.80163892,0.59780853,-0.57058195,-0.82124067,0,0)" /><path
         id="ellipse3280"
         style="fill:#ffffff;fill-opacity:1;stroke-width:0.228475"
         d="m -2.7042673,-293.62576 a 11.114098,9.4864216 -180 0 0 7.2784734,2.31687 11.114098,9.4864216 -180 0 0 9.9518689,-5.27649 11.114098,9.4864216 0 0 0 -9.2932365,-4.28813 11.114098,9.4864216 0 0 0 -9.9560798,5.27153 11.114098,9.4864216 -180 0 0 2.018974,1.97622 z"
         transform="matrix(-0.80163892,0.59780853,-0.57058195,-0.82124067,0,0)" /><ellipse
         style="fill:#b92300;fill-opacity:1;stroke-width:0.166187"
         id="ellipse3285"
         cx="-103.75579"
         cy="-312.79047"
         rx="9.0657063"
         ry="6.1530309"
         transform="matrix(-0.9086301,0.41760189,-0.16416187,-0.98643341,0,0)" /><ellipse
         style="fill:#b92300;fill-opacity:1;stroke-width:0.166187"
         id="ellipse3494"
         cx="-153.14481"
         cy="-303.27615"
         rx="9.0657063"
         ry="6.1530309"
         transform="matrix(-0.9086301,0.41760189,-0.16416187,-0.98643341,0,0)" /></g></g></svg>
